#!OML:ASF H:\Terrain\Patient Classification 1\Animal1\Tuesday\Animal1.ASF
:FULLY-SPECIFIED
:DEGREES
1226
root 15.3461 15.2233 -12.9006 18.5235 -0.750201 1.88333
lowerback 2.95337 -0.446455 -1.16705
upperback -10.0651 -0.638327 0.803752
thorax -12.4833 -0.144099 1.61321
lowerneck -10.1874 2.40643 -4.04211
upperneck 22.6751 3.38558 3.34029
head 8.59819 1.59957 2.15534
rclavicle -4.27387e-015 9.54166e-015
rhumerus -20.8477 -7.71532 -30.729
rradius 143.311
rwrist -49.6026
rhand -22.8858 37.5803
rfingers 7.12502
rthumb 3.55334 7.6302
lclavicle -4.27387e-015 9.54166e-015
lhumerus -37.5549 2.30847 27.7437
lradius 141.561
lwrist 9.33212
lhand 7.7423 32.0729
lfingers 7.12502
lthumb 32.982 59.0769
rfemur -55.5298 3.84154 8.43858
rtibia 55.4873
rfoot -19.8462 -32.0836
rtoes 31.3236
lfemur -39.8831 1.56824 -18.5159
ltibia 53.0157
lfoot -25.4892 21.9206
ltoes -6.82589
1227
root 15.3128 15.2421 -12.8699 18.6113 -1.15049 2.3042
lowerback 2.826 -0.470825 -1.65682
upperback -10.1703 -0.72246 0.757842
thorax -12.522 -0.138493 1.84825
lowerneck -10.3499 2.42143 -4.14035
upperneck 22.6861 3.45183 3.25455
head 8.6298 1.61354 2.15298
rclavicle 1.78906e-015 3.97569e-015
rhumerus -22.4555 -13.7864 -33.6904
rradius 143.888
rwrist -47.6984
rhand -22.5471 39.1394
rfingers 7.12502
rthumb 3.88044 9.19497
lclavicle 1.78906e-015 3.97569e-015
lhumerus -38.666 9.11091 29.2207
lradius 142.374
lwrist 8.49
lhand 8.46961 31.1963
lfingers 7.12502
lthumb 33.6734 58.052
rfemur -55.6014 3.50337 8.29743
rtibia 55.4262
rfoot -19.7238 -32.228
rtoes 32.3632
lfemur -39.4508 1.66919 -18.9372
ltibia 52.4302
lfoot -25.3179 22.2418
ltoes -7.4513
1228
root 15.2798 15.2585 -12.8418 18.5613 -1.36727 2.33286
lowerback 2.84603 -0.561707 -1.70822
upperback -10.2825 -0.840001 0.888168
thorax -12.6594 -0.179516 2.03716
lowerneck -10.1501 2.51003 -4.26419
upperneck 22.4633 3.62545 3.09848
head 8.51156 1.67125 2.12877
rclavicle -1.74434e-014 1.59028e-015
rhumerus -23.7137 -18.9051 -36.501
rradius 144.455
rwrist -46.62
rhand -22.7078 39.9956
rfingers 7.12502
rthumb 3.72528 10.0484
lclavicle -1.74434e-014 1.59028e-015
lhumerus -39.9888 16.0831 30.4544
lradius 143.131
lwrist 7.32498
lhand 9.4389 30.2377
lfingers 7.12502
lthumb 34.594 56.8876
rfemur -55.4826 3.22919 8.62434
rtibia 55.3796
rfoot -19.2191 -32.4002
rtoes 33.1104
lfemur -38.9567 1.81857 -18.8624
ltibia 51.93
lfoot -25.5368 22.0171
ltoes -6.09774
1229
root 15.2442 15.2673 -12.8171 18.5699 -1.59389 2.20216
lowerback 2.8796 -0.60898 -1.58914
upperback -10.4599 -0.883933 1.00203
thorax -12.8874 -0.201082 2.10491
lowerneck -9.76722 2.59104 -4.38588
upperneck 22.1749 3.75312 3.0507
head 8.33697 1.71996 2.13044
rclavicle -1.10822e-014 -2.38542e-015
rhumerus -24.8957 -23.2193 -38.9737
rradius 144.932
rwrist -46.3185
rhand -22.9493 40.0895
rfingers 7.12502
rthumb 3.4921 10.1384
lclavicle -1.10822e-014 -2.38542e-015
lhumerus -41.2207 22.7325 31.6272
lradius 143.732
lwrist 5.57806
lhand 10.0757 29.6467
lfingers 7.12502
lthumb 35.1981 56.1562
rfemur -55.4721 3.03816 9.10765
rtibia 55.389
rfoot -18.803 -32.6601
rtoes 32.8433
lfemur -38.6253 2.06229 -18.6025
ltibia 51.5326
lfoot -25.8223 21.5523
ltoes -4.18644
1230
root 15.2036 15.2664 -12.7941 18.5487 -1.93923 2.43376
lowerback 2.91623 -0.574187 -1.90648
upperback -10.6241 -0.87123 0.987479
thorax -13.1042 -0.158621 2.26878
lowerneck -9.61319 2.58964 -4.31926
upperneck 22.1435 3.78608 2.80549
head 8.30475 1.71652 2.03659
rclavicle 2.47735e-014 1.55052e-014
rhumerus -26.041 -26.5517 -41.1562
rradius 145.323
rwrist -46.265
rhand -23.1506 40.1937
rfingers 7.12502
rthumb 3.29765 10.2394
lclavicle 2.47735e-014 1.55052e-014
lhumerus -42.4634 28.8916 32.8791
lradius 144.392
lwrist 4.05258
lhand 10.3671 29.1318
lfingers 7.12502
lthumb 35.4744 55.5757
rfemur -55.553 2.83404 9.16883
rtibia 55.4828
rfoot -18.652 -32.815
rtoes 32.5806
lfemur -38.3017 2.33717 -18.7756
ltibia 51.223
lfoot -25.7466 21.5172
ltoes -4.7058
1231
root 15.1625 15.2618 -12.7711 18.5027 -2.30178 2.86089
lowerback 2.88173 -0.531981 -2.44434
upperback -10.7303 -0.867817 0.979628
thorax -13.2073 -0.0985872 2.56213
lowerneck -9.73307 2.62439 -4.04951
upperneck 22.3888 3.91631 2.25182
head 8.42561 1.74064 1.8269
rclavicle 7.95139e-015 7.55382e-015
rhumerus -26.8704 -28.9755 -43.0299
rradius 145.674
rwrist -46.4872
rhand -22.7306 40.2798
rfingers 7.12502
rthumb 3.7033 10.3322
lclavicle 7.95139e-015 7.55382e-015
lhumerus -43.7553 34.8053 33.9141
lradius 144.918
lwrist 3.34875
lhand 10.2079 28.563
lfingers 7.12502
lthumb 35.3235 55.0429
rfemur -55.6793 2.47256 9.04517
rtibia 55.6249
rfoot -18.386 -32.5685
rtoes 32.9689
lfemur -37.9807 2.59784 -19.1897
ltibia 50.9969
lfoot -25.4049 21.9885
ltoes -7.31895
1232
root 15.1245 15.2606 -12.7441 18.3784 -2.52558 2.87384
lowerback 2.86374 -0.485255 -2.50274
upperback -10.8141 -0.796579 1.10564
thorax -13.2998 -0.0468304 2.72454
lowerneck -9.82817 2.71218 -3.78469
upperneck 22.7748 4.10216 1.7952
head 8.58664 1.79749 1.65772
rclavicle 2.06488e-014 -6.36111e-015
rhumerus -27.434 -30.5465 -44.5309
rradius 146.021
rwrist -46.5742
rhand -21.9748 40.4966
rfingers 7.12502
rthumb 4.43315 10.563
lclavicle 2.06488e-014 -6.36111e-015
lhumerus -45.0457 40.1033 34.7493
lradius 145.35
lwrist 2.8611
lhand 10.1797 27.9073
lfingers 7.12502
lthumb 35.2967 54.3936
rfemur -55.6084 2.04809 9.44225
rtibia 55.7258
rfoot -17.8099 -32.1301
rtoes 33.0498
lfemur -37.5896 2.86461 -19.1063
ltibia 50.873
lfoot -25.6207 21.9813
ltoes -7.69151
1233
root 15.087 15.2598 -12.7161 18.1336 -2.60756 2.43694
lowerback 2.92528 -0.512835 -2.06208
upperback -10.8315 -0.763419 1.37358
thorax -13.3605 -0.0578883 2.76928
lowerneck -10.0803 2.84338 -3.5897
upperneck 23.2716 4.31624 1.57871
head 8.8077 1.8831 1.58888
rclavicle 5.2181e-016 -9.54166e-015
rhumerus -27.3881 -30.587 -46.1576
rradius 146.328
rwrist -45.9835
rhand -22.0595 40.69
rfingers 7.12502
rthumb 4.35127 10.7547
lclavicle 5.2181e-016 -9.54166e-015
lhumerus -46.5065 44.5594 35.0405
lradius 145.785
lwrist 2.50942
lhand 10.9355 26.8894
lfingers 7.12502
lthumb 36.0131 53.2027
rfemur -55.2952 1.70929 10.3443
rtibia 55.758
rfoot -16.4811 -31.8417
rtoes 31.8432
lfemur -37.1098 3.18232 -18.4905
ltibia 50.8332
lfoot -26.0277 21.5683
ltoes -6.33674
1234
root 15.0463 15.2544 -12.6912 17.8861 -2.72072 2.15165
lowerback 2.85539 -0.680711 -1.80864
upperback -10.695 -0.939341 1.63647
thorax -13.1406 -0.157736 2.9359
lowerneck -10.6477 3.06505 -3.51027
upperneck 23.654 4.6208 1.65591
head 9.03625 2.03209 1.65338
rclavicle -7.8023e-015 2.14687e-014
rhumerus -26.3477 -28.6418 -48.3102
rradius 146.559
rwrist -44.9629
rhand -22.9501 41.1619
rfingers 7.12502
rthumb 3.4913 11.2107
lclavicle -7.8023e-015 2.14687e-014
lhumerus -47.6311 48.0809 34.9476
lradius 145.959
lwrist 2.5645
lhand 12.0689 25.0842
lfingers 7.12502
lthumb 37.0859 51.1264
rfemur -55.0397 1.33993 11.0572
rtibia 55.7945
rfoot -15.1285 -31.3819
rtoes 30.1895
lfemur -36.664 3.54105 -18.0484
ltibia 50.8333
lfoot -26.11 21.4143
ltoes -6.19571
1235
root 15.0043 15.2483 -12.6678 17.6123 -2.91074 2.28639
lowerback 2.77751 -0.867891 -2.0211
upperback -10.5312 -1.20407 1.74458
thorax -12.8754 -0.264177 3.20307
lowerneck -10.9191 3.23006 -3.40218
upperneck 23.677 4.78435 1.87963
head 9.08534 2.14042 1.73511
rclavicle 1.23495e-014 -1.35174e-014
rhumerus -25.0309 -25.1527 -50.1796
rradius 146.836
rwrist -44.0298
rhand -23.6049 41.7856
rfingers 7.12502
rthumb 2.85892 11.825
lclavicle 1.23495e-014 -1.35174e-014
lhumerus -47.4463 49.7753 35.6501
lradius 145.983
lwrist 3.10728
lhand 13.1133 22.8282
lfingers 7.12502
lthumb 38.0729 48.6076
rfemur -54.8174 0.862674 11.298
rtibia 55.8864
rfoot -15.077 -30.5712
rtoes 29.5807
lfemur -36.1717 3.77449 -18.0515
ltibia 50.8102
lfoot -26.0975 21.5028
ltoes -7.04516
1236
root 14.9577 15.2403 -12.6442 17.3846 -3.12881 2.41369
lowerback 2.75481 -1.02576 -2.22062
upperback -10.478 -1.43457 1.79351
thorax -12.7776 -0.355434 3.39719
lowerneck -10.6858 3.16853 -3.46739
upperneck 23.3447 4.59621 2.28616
head 8.91746 2.09518 1.85065
rclavicle 9.83984e-015 3.18055e-015
rhumerus -23.6535 -20.4393 -51.3952
rradius 147.016
rwrist -43.4006
rhand -23.1818 41.8028
rfingers 7.12502
rthumb 3.26756 11.8481
lclavicle 9.83984e-015 3.18055e-015
lhumerus -45.3737 48.9521 38.0461
lradius 145.988
lwrist 3.72976
lhand 13.1828 21.5633
lfingers 7.12502
lthumb 38.1385 47.3247
rfemur -54.6852 0.523484 11.5031
rtibia 56.0328
rfoot -15.5435 -29.7217
rtoes 29.7124
lfemur -35.7409 3.99132 -18.0238
ltibia 50.7484
lfoot -26.094 21.5496
ltoes -7.72689
1237
root 14.9069 15.2335 -12.6163 17.2818 -3.31061 2.31811
lowerback 2.49562 -1.20033 -2.07286
upperback -10.4043 -1.65087 1.84376
thorax -12.5135 -0.480181 3.38594
lowerneck -11.0192 3.48294 -2.99474
upperneck 23.4495 4.93906 2.33453
head 9.01543 2.29975 1.83448
rclavicle 9.69075e-015 -1.59028e-015
rhumerus -21.8183 -14.6036 -52.2315
rradius 146.765
rwrist -42.3617
rhand -22.2799 41.7628
rfingers 7.12502
rthumb 4.13851 11.8233
lclavicle 9.69075e-015 -1.59028e-015
lhumerus -41.9387 45.7975 41.5442
lradius 145.861
lwrist 4.33095
lhand 11.9446 21.7822
lfingers 7.12502
lthumb 36.9683 47.8548
rfemur -54.673 0.27896 11.9558
rtibia 56.2036
rfoot -15.6444 -28.9187
rtoes 29.8527
lfemur -35.4331 4.28195 -17.7435
ltibia 50.6627
lfoot -26.14 21.3255
ltoes -7.33815
1238
root 14.854 15.2285 -12.5863 17.2159 -3.55712 2.28021
lowerback 2.13303 -1.33848 -1.9925
upperback -10.333 -1.82568 1.86446
thorax -12.1925 -0.581456 3.36896
lowerneck -10.9104 3.59664 -2.82243
upperneck 23.1034 5.02589 2.45001
head 8.87364 2.37241 1.84238
rclavicle 2.98177e-015 7.15625e-015
rhumerus -19.7783 -8.0925 -52.1246
rradius 146.116
rwrist -40.3171
rhand -21.9297 42.1808
rfingers 7.12502
rthumb 4.47662 12.2481
lclavicle 2.98177e-015 7.15625e-015
lhumerus -38.6377 40.648 44.6443
lradius 145.749
lwrist 5.19302
lhand 10.0829 23.4672
lfingers 7.12502
lthumb 35.2049 49.9752
rfemur -54.6998 0.0367367 12.3739
rtibia 56.4144
rfoot -15.1551 -28.4201
rtoes 29.2058
lfemur -35.0933 4.58127 -17.5364
ltibia 50.5263
lfoot -26.2519 21.0848
ltoes -6.64905
1239
root 14.7937 15.2214 -12.5539 17.1566 -3.95256 2.34683
lowerback 1.77688 -1.36128 -2.08601
upperback -10.341 -1.86662 1.80232
thorax -11.9782 -0.602362 3.34499
lowerneck -10.3349 3.56047 -2.72867
upperneck 22.5289 4.90794 2.55614
head 8.57264 2.34373 1.82136
rclavicle 4.67144e-015 -7.15625e-015
rhumerus -17.9327 -1.24754 -50.8231
rradius 145.183
rwrist -37.5413
rhand -22.1848 42.7838
rfingers 7.12502
rthumb 4.23029 12.846
lclavicle 4.67144e-015 -7.15625e-015
lhumerus -35.8506 33.9262 46.9376
lradius 145.56
lwrist 5.52099
lhand 7.4521 26.3036
lfingers 7.12502
lthumb 32.7059 53.3654
rfemur -54.7873 -0.0602052 12.6569
rtibia 56.6662
rfoot -14.4952 -28.1628
rtoes 28.6244
lfemur -34.6924 4.99442 -17.4659
ltibia 50.308
lfoot -26.1309 21.2121
ltoes -7.3843
